PathFileType	4	(X/Y/Z)	pose2sim_0-707.trc
DataRate	CameraRate	NumFrames	NumMarkers	Units	OrigDataRate	OrigDataStartFrame	OrigNumFrames
50	50	8	22	m	50	177	708
Frame#	Time	Hip			RHip			RKnee			RAnkle			RBigToe			RSmallToe			RHeel			LHip			LKnee			LAnkle			LBigToe			LSmallToe			LHeel			Neck			Head			Nose			RShoulder			RElbow			RWrist			LShoulder			LElbow			LWrist			
		X1	Y1	Z1	X2	Y2	Z2	X3	Y3	Z3	X4	Y4	Z4	X5	Y5	Z5	X6	Y6	Z6	X7	Y7	Z7	X8	Y8	Z8	X9	Y9	Z9	X10	Y10	Z10	X11	Y11	Z11	X12	Y12	Z12	X13	Y13	Z13	X14	Y14	Z14	X15	Y15	Z15	X16	Y16	Z16	X17	Y17	Z17	X18	Y18	Z18	X19	Y19	Z19	X20	Y20	Z20	X21	Y21	Z21	X22	Y22	Z22	
177	3.54	0.10805823781591768	0.9074954012464361	-0.10417134683249604	-0.005819761238179949	0.8978011873268297	-0.10665107849786823	-0.02554857872949498	0.4969190133141711	-0.12739510299669637	-0.019319777553609297	0.09767721139377047	-0.1478524599956269	-0.04303548986147433	0.04684333065663943	0.049852936343230965	-0.08666536233152095	0.04683315480288817	-0.021800104319993203	-0.005129762524812001	0.05575444642632046	-0.19053328539115252	0.22532712118874618	0.8950800376182856	-0.10888037050271485	0.24267369412407716	0.4925337103502032	-0.13440524071357363	0.2602550733908989	0.09827341740785198	-0.1592378411461373	0.28389286504626454	0.0434064929299194	0.02292621293951158	0.32152294938228076	0.047407534998964905	-0.032260553639071314	0.2502683016793116	0.05438962575607649	-0.20016056004740349	0.11466023036494927	1.5219106195257455	-0.08404028493740946	0.11308251426613443	1.7533857387242504	-0.0511265599104447	0.09589939778112722	1.6326130810393826	0.046991567449835625	-0.0657254303550741	1.420301613524955	-0.10215583549748629	-0.14214016008338273	1.137638554280392	-0.12763769827166796	-0.20428430936532918	0.8950795942201466	-0.07415571023532423	0.29411430877462613	1.4165033222368693	-0.10660705204516983	0.3789399182002956	1.1398378941532263	-0.13384288131184666	0.436093911164287	0.8926239505174944	-0.08215507343237215
178	3.56	0.10800674092829314	0.907783880712787	-0.10321951511204397	-0.007720191466971694	0.8962403402869076	-0.09821864729329847	-0.024172932001081487	0.4938895187951583	-0.12936058019276672	-0.017057251060922495	0.09823859812144986	-0.14691648194679305	-0.04067003812467734	0.04996241033608201	0.05676806837508615	-0.0851041236231379	0.04838506473838059	-0.01707387150346821	-0.005031961482464234	0.054910053226080745	-0.18830069833309854	0.22680327404417122	0.8935949157752907	-0.10159939175992463	0.24575188520129648	0.49226291129222716	-0.13145174304438648	0.25867762975794706	0.0959556459038434	-0.15414636063618048	0.28298452158697573	0.04691238244823203	0.016401836648885743	0.3190425689617519	0.05096223147027076	-0.03414712714623212	0.2517232261550075	0.05310504267667757	-0.19683744527486155	0.11473962905129599	1.521951881318439	-0.07760017833628755	0.11325865788362675	1.7538850888296211	-0.0448345957681454	0.1024667722460862	1.6323744031159662	0.058688705345195935	-0.0661650728998588	1.417004204615981	-0.1047639806251622	-0.14135673744906163	1.137806791642553	-0.13271861047409095	-0.20341380949359436	0.8950733931557221	-0.08000510391882136	0.2943059842516196	1.4180060012661346	-0.10961793500146859	0.3780113100769432	1.141312066980783	-0.12687484921215736	0.4346043662913033	0.8897693142030493	-0.08876968792824255
179	3.58	0.1064052410326769	0.9052343595941743	-0.10707224944658535	-0.007717439272156419	0.8962591709155562	-0.10269085504256302	-0.02536748319125265	0.496933621986423	-0.12496761461456488	-0.015158638114272503	0.10010441935631154	-0.14902350343727397	-0.03748591439624138	0.05005985794682823	0.05236422815179895	-0.08248264494969103	0.051637114786092585	-0.015479151256263047	-0.0033755621687621756	0.05678039861003284	-0.19011670914799556	0.2252861781851884	0.8924278895622302	-0.1064499002759766	0.24581093387010142	0.49522716354885316	-0.13072650105532743	0.2587701548942497	0.0962653675869304	-0.1531816720649004	0.28404159125487716	0.04570803654221801	0.0179591106454046	0.32273969838945543	0.0480115952158203	-0.038469285390322794	0.25208698615098685	0.053511230732641475	-0.19617714728215285	0.11466696017217054	1.520456915364346	-0.07752010195066751	0.11321476424467924	1.7524072793446401	-0.04491582467956036	0.10392687941657791	1.631956198748507	0.05447707634089222	-0.06609517577836474	1.4179655999656242	-0.10374001765793328	-0.1395762999061848	1.136435923352372	-0.1295952443119789	-0.2033291839664349	0.8937953358942684	-0.07363895182296158	0.29275232161595216	1.420191803808162	-0.10153587209012115	0.3777591718493418	1.14233914544149	-0.12794247548511756	0.4342703412466013	0.8927858469357899	-0.09289426433425547
180	3.6	0.10615415470481943	0.9066278508222831	-0.09638530620185838	-0.004470142912564074	0.8928355174120144	-0.1009840281185211	-0.027349904333831717	0.49672640013731056	-0.12824944642495126	-0.01801974387137625	0.09494714278508724	-0.1596262552171888	-0.034288709286525686	0.047692094314241186	0.0516014694864585	-0.08081394382609264	0.04687750611282788	-0.006710151181337502	-0.008732909718585	0.04719363052903671	-0.19962427460790924	0.22170877656566557	0.890806473393485	-0.10064984469768008	0.24349046415761566	0.4952568206337572	-0.13475838088178568	0.26096535883548294	0.09842472203677512	-0.15683180718918546	0.284931462801898	0.049060426004249084	0.02195227923193671	0.3193242904407153	0.04788782266701589	-0.033963453987764035	0.25000936115312944	0.05048758210939913	-0.19466564801608746	0.11414101428878265	1.522842588270847	-0.08136816026949792	0.1143147330045307	1.748384349057725	-0.05356970442087839	0.11546937577694522	1.627833474017984	0.04653866036731908	-0.06681271669545338	1.4150080773014915	-0.10359150678829311	-0.14309479361109328	1.1352635164007923	-0.12963565588126985	-0.20589738717192196	0.8922509517723001	-0.07825032117558875	0.2961114098353094	1.413935742705289	-0.11167027450627236	0.3769810321822317	1.1313426601465533	-0.1263393749002048	0.4331014193749353	0.8844949900351248	-0.0774822390497696
181	3.62	0.11000573926785161	0.9086461421982884	-0.10352558652616313	-0.003946985253698404	0.8975161858256716	-0.10529261981370937	-0.024667160103595726	0.49644402058079096	-0.1286879968984782	-0.017388783588195414	0.09845214527541644	-0.14802911121248982	-0.04479042319552768	0.047281496188057874	0.04386682901122823	-0.08864770208437345	0.04863750018320094	-0.026669938149012563	-0.00442879962649186	0.055191658592472916	-0.19145751990622095	0.22733044345538084	0.8947460105388089	-0.10736246211724013	0.24332113251789192	0.49360575478600716	-0.1365822542033023	0.25941411376200546	0.09353856951031407	-0.1585448518069167	0.2849358799153979	0.04416914282213549	0.02558481614684256	0.32251275053380596	0.04817670463657461	-0.034547905166326956	0.2523734818540772	0.05212585914679838	-0.20284833757340115	0.11537940971902513	1.5217837805645653	-0.08037389128732648	0.11238611240929103	1.7534503908894254	-0.05077973034206016	0.09411277102177422	1.6314876411107808	0.04548424454545931	-0.06666508067907594	1.4178710961483685	-0.10283149728526454	-0.13882259507654754	1.1361859491352555	-0.1246487322166918	-0.19964719183709273	0.8919650865876155	-0.06917558805553807	0.2948783563558247	1.419068014166746	-0.10863724754183685	0.37684859096820794	1.141142255714269	-0.128752369818502	0.43244250365360704	0.8955582817136731	-0.08350756923424647
182	3.64	0.1087490349389641	0.9074611018486828	-0.09903149653949633	-0.007023395054656444	0.8988372436942927	-0.10376295123845457	-0.023221213849370464	0.49753624725825407	-0.12644859760900512	-0.01912935948074009	0.09940718733002937	-0.15239269505617434	-0.04449656955812418	0.04969065655855365	0.04787864574795225	-0.08825421179973407	0.04816725352595551	-0.022335407105381053	-0.005613551135772061	0.055830574582162444	-0.1914084881698325	0.2248065239167761	0.8947510108398621	-0.10326438707284259	0.24223770004143638	0.49472576421997216	-0.13266804276159755	0.2596481545565602	0.09692913322366921	-0.15988122929431672	0.2841430669226674	0.0461382684433757	0.02005712136329775	0.32417475168242893	0.0501613689160388	-0.03242416644287985	0.25259358138521704	0.052486943171374145	-0.20121424597013574	0.11536159674062135	1.52362505627673	-0.0804359192472573	0.11257266628699623	1.755583384921726	-0.04472018534518711	0.09489588841571202	1.6332162909067185	0.0391451211645449	-0.06681345875557804	1.4195498624429654	-0.09717915675864344	-0.13932704384677833	1.136431391109765	-0.12587751753479245	-0.2011397762536927	0.8947003027395181	-0.0669492954807764	0.29368707052181786	1.4205716673634223	-0.10351161276303981	0.3759616435539525	1.1414613450396183	-0.12384120689294392	0.4311274261440482	0.8937746957155343	-0.0770812182579314
183	3.66	0.10993718929685287	0.9080538383234544	-0.10421576176543808	-0.0056779915091360635	0.8954508596850862	-0.10489085641081601	-0.024922767726577876	0.49667304362541187	-0.13120936985355974	-0.01944259111350141	0.09694479916968857	-0.15066305474867508	-0.03998048813583444	0.04984513738708296	0.04762108545473051	-0.08542333193109732	0.049706371328701766	-0.02352918589527366	-0.006307023685291733	0.05635783139596809	-0.1896378695271217	0.2260515900759702	0.8916550379383757	-0.10392636824819529	0.24362019019165201	0.4952243287045084	-0.1390424671271994	0.25981329843770534	0.09724958176469443	-0.15820969970739876	0.2903612598029692	0.047844491350390726	0.014689598086155182	0.32722487342491446	0.04912425406073871	-0.040962653305423695	0.2526638856624411	0.052647807533617925	-0.1996583737858277	0.11387602122252381	1.5216366338841008	-0.07731388217138445	0.11243705519630146	1.7538149848318216	-0.044877739630291666	0.09606733471971295	1.6326752837907046	0.04662936077522179	-0.06703282146180942	1.4163388376248491	-0.09787971794553416	-0.14082911796193326	1.135899043237789	-0.11750635226705104	-0.20444197706220746	0.8925750987977829	-0.060648143794538326	0.2947259079970281	1.4175992538404785	-0.10755894390957113	0.37449153242644645	1.1385143909824569	-0.12055203693302026	0.4283663964020802	0.8926132406518883	-0.06516918721523662
184	3.68	0.10737020496863443	0.9048770125012302	-0.0944185621689022	-0.005323067882155612	0.8947618626103383	-0.09810774587179662	-0.026837437733947783	0.49268150895204604	-0.12739581376462833	-0.019110905326835518	0.09323231666286365	-0.15631861601586838	-0.03141149590240237	0.04970535872630521	0.04795632487607683	-0.08038050889817537	0.049041080322171325	-0.010286916546480923	-0.00836935097168397	0.047923093514369935	-0.19467305695170276	0.22474397924475653	0.8917559323088174	-0.09656491353328595	0.24275780267192232	0.49299837139565006	-0.1372022601284019	0.26119090367913966	0.09364219133067517	-0.15961477674442226	0.2794022193294854	0.047444839107033523	0.024334874597340423	0.3152599489765246	0.04984044159547098	-0.03133591075233007	0.2481868899230548	0.04966095189883003	-0.19641795757192115	0.11533826424526855	1.5236753217112406	-0.0844827745311059	0.11101434172728908	1.7481980735239355	-0.05713215167287078	0.10750259756722731	1.6304587056587356	0.04611560228714526	-0.06436599541394299	1.4148159981924637	-0.1049522808706487	-0.14153916159868704	1.1314129923683323	-0.11831859480428537	-0.2028668110182117	0.8902870952293903	-0.05228443713178468	0.29607026505198647	1.4137858583746328	-0.11284096605818145	0.3735969168071669	1.132414054825164	-0.11932825004217236	0.4252309272076212	0.8865995186787657	-0.049394928274660285
